Coordinates
version=1
nRows=12
nColumns=33
inDegrees=yes

Units are S.I. units (second, meters, Newtons, ...)
Angles are in degrees.

endheader
time	ground_thorax_rot_x	ground_thorax_rot_y	ground_thorax_rot_z	ground_thorax_tx	ground_thorax_ty	ground_thorax_tz	clav_prot_r	clav_elev_r	scapula_abduction_r	scapula_elevation_r	scapula_upward_rot_r	scapula_winging_r	shoulder_elv_r	plane_of_elev_r	axial_rot_r	elbow_flexion_r	pro_sup_r	wrist_flex_r	wrist_dev_r	clav_prot_l	clav_elev_l	scapula_abduction_l	scapula_elevation_l	scapula_upward_rot_l	scapula_winging_l	shoulder_elv_l	plane_of_elev_l	axial_rot_l	elbow_flexion_l	pro_sup_l	wrist_flex_l	wrist_dev_l
      3.87000000	     29.65991238	     27.94583693	     39.21441061	      9.26641566	    829.83054310	    -41.47446467	     -3.28733549	     39.64374618	     44.87851973	     45.00000000	     25.25886142	   2030.28726507	    974.68638767	    141.25829830	   -179.99999979	   1064.57138572	     63.32700564	     21.14266929	     17.22199133	     -8.94616005	    -45.00000000	    -39.21541247	     45.00000000	    -45.00000000	   1898.52158262	  -2802.30942345	     29.17374575	     47.64257472	   2150.32279084	     43.63045967	     14.56690928	    -18.08325137
      3.88000000	     29.57185214	     28.07356206	     39.40089170	     13.23458498	    827.26680011	    -41.38882897	     -3.44513520	     39.70038612	     45.00000000	     45.00000000	     25.20609741	   2029.81517315	    974.11620314	    141.17197371	   -179.99999979	   1064.65830355	     63.70346984	     20.97710708	     17.13547147	     -9.27364321	    -45.00000000	    -39.00100037	     45.00000000	    -45.00000000	   1898.16684486	  -2802.51163307	     29.13628687	     47.51502011	   2150.29714495	     43.80829759	     14.48306270	    -17.84376577
      3.89000000	     29.37583432	     28.35842108	     39.87642297	     17.20406926	    824.59316254	    -41.28005220	     -3.30175328	     39.93326723	     45.00000000	     45.00000000	     25.10281360	   2029.41504806	    973.61864793	    141.08870735	   -179.99999979	   1064.73382087	     64.11740973	     20.53931078	     16.89626820	     -9.93906072	    -45.00000000	    -38.78072346	     45.00000000	    -45.00000000	   1897.71655712	  -2802.59500651	     28.87374239	     47.64668463	   2150.21443502	     43.96589457	     14.35508480	    -17.53337800
      3.90000000	     29.18959774	     28.59808730	     40.23376822	     21.16170130	    821.82140649	    -41.15044521	     -3.61353867	     40.04448481	     45.00000000	     45.00000000	     24.92590524	   2028.99788739	    973.02790992	    141.03880251	   -179.99999979	   1064.83306848	     64.50398355	     20.31281966	     16.74532122	    -10.13109156	    -45.00000000	    -38.63401751	     45.00000000	    -45.00000000	   1897.41283662	  -2802.84985040	     28.76478710	     47.20759467	   2150.20771819	     44.08737376	     14.26000282	    -17.30176215
      3.91000000	     29.08134566	     28.88981303	     40.47842846	     25.09204182	    818.96572283	    -41.00490949	     -4.07241230	     40.10297463	     45.00000000	     45.00000000	     24.56614509	   2028.56814239	    972.44477618	    140.90681883	   -179.99999979	   1064.87349090	     64.86981803	     20.16881265	     16.66359416	    -10.13508331	    -45.00000000	    -38.41048972	     45.00000000	    -45.00000000	   1897.12336958	  -2803.25951124	     28.77548718	     46.54615516	   2150.28446035	     44.17754798	     14.17424387	    -17.12338565
      3.92000000	     28.43046148	     29.55584784	     41.67396277	     28.97755978	    816.04414809	    -40.85095565	     -5.63494316	     40.31695629	     45.00000000	     45.00000000	     24.22033043	   2027.99684988	    972.20874916	    140.86108149	   -179.99999979	   1065.01442195	     65.22555253	     19.23798347	     16.00388035	     -9.54849533	    -45.00000000	    -38.46567240	     45.00000000	    -45.00000000	   1897.11440639	  -2803.62226673	     28.41013724	     45.38897681	   2150.17578531	     44.29692803	     14.18994967	    -16.96528666
      3.93000000	     28.70818892	     29.50209231	     41.30244338	     32.80766539	    813.07002377	    -40.69669676	     -4.52194555	     40.41729607	     45.00000000	     45.00000000	     23.61805513	   2027.75794924	    971.21983547	    140.81662783	   -179.99999979	   1065.03516037	     65.52885332	     19.57021184	     16.24774477	    -10.72484076	    -45.00000000	    -37.92818293	     45.00000000	    -45.00000000	   1896.58809916	  -2803.84737955	     28.47185182	     45.06471404	   2150.18915625	     44.32041559	     14.02224389	    -16.67369662
      3.94000000	     28.69878678	     29.77515166	     41.54659500	     36.55716817	    810.06854755	    -40.55090216	     -4.38747925	     40.72429436	     45.00000000	     45.00000000	     23.27037526	   2027.61399743	    970.81488668	    140.89861167	   -179.99999979	   1065.12202939	     65.75119435	     19.29513358	     16.12836940	    -11.18577978	    -45.00000000	    -37.71533788	     45.00000000	    -45.00000000	   1896.20160407	  -2804.17636456	     28.19754170	     44.75185058	   2150.15296777	     44.28490224	     13.87111508	    -16.37745559
      3.95000000	     28.60093384	     30.08292742	     41.84832374	     40.20553226	    807.06091398	    -40.42023703	     -4.60391448	     40.92394021	     45.00000000	     45.00000000	     22.72501260	   2027.34399333	    970.29687029	    140.96525298	   -179.99999979	   1065.22580509	     65.96030209	     19.04611106	     15.94335012	    -11.44381494	    -45.00000000	    -37.47090511	     45.00000000	    -45.00000000	   1895.98987801	  -2804.54302588	     28.05041729	     43.88910060	   2150.09702105	     44.20764389	     13.81583321	    -16.16184741
      3.96000000	     28.43187161	     30.41143939	     42.24270469	     43.72818099	    804.07388680	    -40.31052077	     -4.86053209	     41.12457811	     45.00000000	     45.00000000	     22.09140523	   2027.04505723	    969.75192440	    141.03123201	   -179.99999979	   1065.31651628	     66.16345928	     18.73804320	     15.69600275	    -11.64711121	    -45.00000000	    -37.26255071	     45.00000000	    -45.00000000	   1895.79373746	  -2804.88139481	     27.83683745	     42.89411057	   2150.04442336	     44.08835163	     13.76143878	    -15.95454205
      3.97000000	     28.32614991	     30.76323045	     42.57922898	     47.10360351	    801.13534369	    -40.22655304	     -4.84453382	     41.38184463	     45.00000000	     45.00000000	     21.50363026	   2026.88857169	    969.38405195	    141.17410075	   -179.99999979	   1065.46191509	     66.35830451	     18.40423835	     15.41249284	    -12.02910254	    -45.00000000	    -37.00175036	     45.00000000	    -45.00000000	   1895.52120601	  -2805.15919723	     27.54378693	     42.01341100	   2149.94123475	     43.89339179	     13.67233993	    -15.68876006
      3.98000000	     27.91679951	     31.45506936	     43.57447303	     50.30728451	    798.28215679	    -40.17293842	     -5.24274817	     41.46246995	     45.00000000	     45.00000000	     20.66580674	   2026.17518667	    968.91925314	    140.63298037	   -179.99999979	   1065.32962354	     66.66350054	     17.39692560	     14.75464108	    -11.98169383	    -45.00000000	    -36.37468152	     45.00000000	    -45.00000000	   1895.10665281	  -2805.28205677	     26.79004057	     40.49409469	   2149.91519595	     43.72426676	     13.45845565	    -15.33961467
